HIERARCHY
ROOT Hips
{
	OFFSET -0.001795 -0.223333 0.028219
	CHANNELS 6 Xposition Yposition Zposition Zrotation Yrotation Xrotation 
	JOINT LeftUpLeg
	{
		OFFSET 0.069520 -0.091406 -0.006815
		CHANNELS 3 Zrotation Yrotation Xrotation
		JOINT LeftLeg
		{
			OFFSET 0.034277 -0.375199 -0.004496
			CHANNELS 3 Zrotation Yrotation Xrotation
			JOINT LeftFoot
			{
				OFFSET -0.013596 -0.397961 -0.043693
				CHANNELS 3 Zrotation Yrotation Xrotation
				JOINT LeftToe
				{
					OFFSET 0.026358 -0.055791 0.119288
					CHANNELS 3 Zrotation Yrotation Xrotation
					End Site
					{
						OFFSET 0.000000 0.000000 0.000000
					}
				}
			}
		}
	}
	JOINT RightUpLeg
	{
		OFFSET -0.067670 -0.090522 -0.004320
		CHANNELS 3 Zrotation Yrotation Xrotation
		JOINT RightLeg
		{
			OFFSET -0.038290 -0.382569 -0.008850
			CHANNELS 3 Zrotation Yrotation Xrotation
			JOINT RightFoot
			{
				OFFSET 0.015774 -0.398415 -0.042312
				CHANNELS 3 Zrotation Yrotation Xrotation
				JOINT RightToe
				{
					OFFSET -0.025372 -0.048144 0.123348
					CHANNELS 3 Zrotation Yrotation Xrotation
					End Site
					{
						OFFSET 0.000000 0.000000 0.000000
					}
				}
			}
		}
	}
	JOINT Spine
	{
		OFFSET -0.002533 0.108963 -0.026696
		CHANNELS 3 Zrotation Yrotation Xrotation
		JOINT Spine1
		{
			OFFSET 0.005487 0.135180 0.001092
			CHANNELS 3 Zrotation Yrotation Xrotation
			JOINT Spine2
			{
				OFFSET 0.001457 0.052922 0.025425
				CHANNELS 3 Zrotation Yrotation Xrotation
				JOINT Neck
				{
					OFFSET -0.002778 0.213870 -0.042857
					CHANNELS 3 Zrotation Yrotation Xrotation
					JOINT Head
					{
						OFFSET 0.005152 0.064970 0.051349
						CHANNELS 3 Zrotation Yrotation Xrotation
						End Site
						{
							OFFSET 0.000000 0.000000 0.000000
						}
					}
				}
				JOINT LeftShoulder
				{
					OFFSET 0.078845 0.121749 -0.034090
					CHANNELS 3 Zrotation Yrotation Xrotation
					JOINT LeftArm
					{
						OFFSET 0.090977 0.030469 -0.008868
						CHANNELS 3 Zrotation Yrotation Xrotation
						JOINT LeftForeArm
						{
							OFFSET 0.259612 -0.012772 -0.027456
							CHANNELS 3 Zrotation Yrotation Xrotation
							JOINT LeftHand
							{
								OFFSET 0.249234 0.008986 -0.001171
								CHANNELS 3 Zrotation Yrotation Xrotation
								End Site
								{
									OFFSET 0.000000 0.000000 0.000000
								}
							}
						}
					}
				}
				JOINT RightShoulder
				{
					OFFSET -0.081759 0.118833 -0.038615
					CHANNELS 3 Zrotation Yrotation Xrotation
					JOINT RightArm
					{
						OFFSET -0.096012 0.032551 -0.009143
						CHANNELS 3 Zrotation Yrotation Xrotation
						JOINT RightForeArm
						{
							OFFSET -0.253742 -0.013329 -0.021401
							CHANNELS 3 Zrotation Yrotation Xrotation
							JOINT RightHand
							{
								OFFSET -0.255298 0.007772 -0.005559
								CHANNELS 3 Zrotation Yrotation Xrotation
								End Site
								{
									OFFSET 0.000000 0.000000 0.000000
								}
							}
						}
					}
				}
			}
		}
	}
}
MOTION
Frames: 10
Frame Time: 0.050000
0.000000 0.892691 0.000000 -1.351247 -6.539246 5.294956 7.416230 -0.298991 -28.915154 -8.013702 3.460873 36.356036 9.995834 20.239499 4.501937 0.000000 0.000000 0.000000 -3.955298 2.243842 -25.772932 10.311741 -1.992562 37.400130 -10.154993 -23.866390 23.089132 0.000000 0.000000 0.000000 2.190823 -1.320289 28.862905 -6.244798 1.984005 -22.531450 -0.300827 9.060781 26.758128 10.017794 -3.411206 -25.794695 0.000000 0.000000 0.000000 -9.787243 -13.378330 4.790606 -31.959357 -21.997759 -0.239547 141.504948 -58.824666 -111.005687 0.000000 0.000000 0.000000 15.077008 6.478871 3.662976 35.352102 26.592398 1.469180 -142.434765 59.371771 -105.209849 0.000000 0.000000 0.000000 
-0.000120 0.891226 -0.002344 -1.749967 -6.630561 6.279634 7.640945 -0.217735 -30.440434 -7.775323 3.420995 37.035437 10.327661 20.837981 4.407823 0.000000 0.000000 0.000000 -4.764932 2.328039 -28.034947 12.635138 -3.019409 37.670266 -12.481004 -26.536090 29.009563 0.000000 0.000000 0.000000 2.111262 -1.315082 29.233834 -5.417040 1.754299 -22.539139 0.180444 10.181422 26.390053 10.318874 -3.155928 -27.176931 0.000000 0.000000 0.000000 -13.969475 -11.852485 3.881795 -35.859156 -18.542388 -0.845360 143.205256 -66.007084 -120.907919 0.000000 0.000000 0.000000 19.600929 2.341711 1.974350 38.349334 25.109861 1.140379 -147.687153 61.698834 -114.094698 0.000000 0.000000 0.000000 
-0.000226 0.888725 -0.003946 -1.536066 -6.374822 6.184549 8.039741 -0.136251 -30.621579 -7.992972 3.537270 37.624470 8.857133 18.214628 2.981262 0.000000 0.000000 0.000000 -4.900138 2.250516 -27.714534 11.684638 -2.635410 37.239141 -10.727805 -24.463572 27.979908 0.000000 0.000000 0.000000 2.652944 -1.475885 28.860757 -5.463119 1.782247 -21.946359 -1.461239 9.901731 26.206007 13.095286 -5.039899 -26.132284 0.000000 0.000000 0.000000 -19.222536 -9.275805 2.402632 -39.673142 -16.816011 -1.239602 147.417100 -71.866252 -130.819419 0.000000 0.000000 0.000000 25.282260 0.565833 1.020728 42.891752 22.378656 0.514454 -150.948749 62.992262 -119.756450 0.000000 0.000000 0.000000 
-0.000154 0.887652 -0.005261 -1.154623 -7.234733 6.011718 7.289664 -0.248656 -30.812381 -7.787691 3.658963 38.368765 9.746580 19.824219 3.213254 0.000000 0.000000 0.000000 -5.004688 2.479074 -29.702619 12.178125 -2.782971 39.497794 -14.373966 -28.300592 33.875683 0.000000 0.000000 0.000000 2.053910 -1.251115 29.702267 -6.181077 1.914341 -23.191440 -0.611596 8.778334 27.712863 13.988197 -6.499353 -23.703077 0.000000 0.000000 0.000000 -21.353979 -7.419063 1.786722 -44.027686 -12.922850 -2.836746 139.813230 -73.418726 -121.348570 0.000000 0.000000 0.000000 28.376354 -1.166076 -0.708588 45.875775 19.309154 -0.444288 -152.057249 66.063376 -124.947546 0.000000 0.000000 0.000000 
0.000403 0.888226 -0.006042 -1.382159 -7.459345 6.204320 7.419838 -0.187191 -30.804648 -8.071472 3.785805 37.813144 10.571128 21.299477 3.598102 0.000000 0.000000 0.000000 -4.864026 2.584313 -30.227601 12.519733 -2.919500 40.160511 -14.154502 -28.166601 33.103198 0.000000 0.000000 0.000000 2.238777 -1.285990 29.387271 -5.873760 1.851110 -22.122629 -0.852078 7.967075 27.350137 13.730717 -6.462035 -23.602943 0.000000 0.000000 0.000000 -23.623201 -4.916111 0.451372 -48.265319 -10.966795 -3.741145 130.991094 -74.706315 -111.296039 0.000000 0.000000 0.000000 29.584402 -2.699934 -2.200904 52.792637 16.798932 -0.944927 -147.338828 68.706189 -120.529937 0.000000 0.000000 0.000000 
0.001600 0.889221 -0.007026 -1.481118 -8.296742 6.530761 6.926969 -0.251417 -30.092165 -7.674377 3.639367 36.758325 11.097877 22.440162 1.849072 0.000000 0.000000 0.000000 -4.790750 2.675267 -30.258880 12.364471 -2.679868 40.079855 -12.486951 -26.735571 29.610911 0.000000 0.000000 0.000000 2.565319 -1.290860 28.288816 -6.285437 1.950155 -21.565428 -0.891069 8.056097 27.335997 14.044608 -7.112012 -21.937168 0.000000 0.000000 0.000000 -22.426661 -4.965986 0.708547 -48.327104 -8.111033 -4.888556 135.224069 -72.003661 -113.522834 0.000000 0.000000 0.000000 29.777904 -3.193696 -2.725046 54.255522 14.445477 -1.903125 -150.027146 66.925771 -122.606969 0.000000 0.000000 0.000000 
0.003303 0.891137 -0.007875 -0.908248 -9.333075 6.390560 6.305257 -0.333665 -29.169792 -8.171510 3.972360 35.834693 11.498948 23.287936 1.200154 0.000000 0.000000 0.000000 -5.384757 2.632673 -30.248138 11.990380 -2.290273 38.908993 -13.322875 -27.546846 33.296985 0.000000 0.000000 0.000000 2.520563 -1.175759 27.430715 -6.554803 2.026689 -20.637593 -1.298202 8.367605 26.565658 14.383088 -7.623450 -20.728259 0.000000 0.000000 0.000000 -18.817911 -5.310072 1.177346 -41.059005 -5.475111 -5.058959 147.742133 -72.263140 -130.142719 0.000000 0.000000 0.000000 28.134767 -3.347506 -2.808674 47.265490 10.792078 -3.307966 -164.610119 63.253057 -142.627751 0.000000 0.000000 0.000000 
0.005257 0.892452 -0.008617 -0.061307 -9.280008 5.700079 5.574197 -0.545597 -28.446072 -7.958520 3.902644 36.197964 9.997222 20.517769 0.155827 0.000000 0.000000 0.000000 -6.277982 2.347880 -29.440313 11.363282 -2.021430 38.057544 -13.094436 -27.095354 35.244666 0.000000 0.000000 0.000000 1.925615 -1.005765 27.597485 -6.405441 2.000265 -20.579497 -1.937804 8.395170 26.486955 14.519526 -7.883989 -19.926356 0.000000 0.000000 0.000000 -13.983383 -6.930320 2.187425 -28.933965 -4.074361 -3.917681 169.298821 -71.017458 -159.870542 0.000000 0.000000 0.000000 22.103981 -3.775758 -2.561885 35.102614 6.154454 -3.922309 -179.773604 59.962205 -169.079689 0.000000 0.000000 0.000000 
0.006580 0.894161 -0.009242 0.485321 -8.112480 4.501269 5.057586 -0.771576 -27.143328 -7.637031 3.504595 35.773049 8.657884 17.870973 0.008948 0.000000 0.000000 0.000000 -6.291636 1.999261 -26.812672 10.575978 -1.844206 35.740086 -15.600847 -29.534113 35.423860 0.000000 0.000000 0.000000 1.638202 -1.006432 27.984003 -6.153757 1.985670 -20.065851 -1.685069 7.166670 26.793001 14.812274 -8.730011 -17.973682 0.000000 0.000000 0.000000 -8.573784 -8.815200 3.197010 -17.995684 -2.439178 -2.673767 179.798297 -68.067819 -175.709025 0.000000 0.000000 0.000000 15.785919 -2.551115 -1.565986 24.837631 1.750079 -3.534190 165.957864 56.921848 162.092262 0.000000 0.000000 0.000000 
0.007344 0.895415 -0.009662 0.417308 -6.476516 4.676714 4.825638 -0.961560 -27.546606 -7.690583 3.181318 35.018926 9.027272 18.584924 1.302617 0.000000 0.000000 0.000000 -6.596133 1.754023 -25.765449 10.261648 -1.950061 34.181549 -13.581369 -27.301957 34.375794 0.000000 0.000000 0.000000 2.102435 -1.252140 27.873425 -5.236881 1.788342 -19.393687 -2.162069 5.819817 26.273274 13.135055 -8.018904 -16.050855 0.000000 0.000000 0.000000 -4.565339 -7.870719 2.800168 -14.565089 -1.315306 -2.241638 -169.055514 -63.889700 166.538756 0.000000 0.000000 0.000000 11.998375 -2.766772 -1.546362 21.821306 -0.722034 -3.343561 162.573487 54.928680 153.952740 0.000000 0.000000 0.000000 
